<svg width="14" height="11" viewBox="0 0 14 11" fill="none" xmlns="http://www.w3.org/2000/svg">
<g clip-path="url(#clip0_97_521)">
<path d="M12.4444 1.17857C12.6583 1.17857 12.8333 1.35536 12.8333 1.57143V2.35714H1.16667V1.57143C1.16667 1.35536 1.34167 1.17857 1.55556 1.17857H12.4444ZM12.8333 4.71429V9.42857C12.8333 9.64464 12.6583 9.82143 12.4444 9.82143H1.55556C1.34167 9.82143 1.16667 9.64464 1.16667 9.42857V4.71429H12.8333ZM1.55556 0C0.697569 0 0 0.704687 0 1.57143V9.42857C0 10.2953 0.697569 11 1.55556 11H12.4444C13.3024 11 14 10.2953 14 9.42857V1.57143C14 0.704687 13.3024 0 12.4444 0H1.55556ZM2.91667 7.46429C2.5934 7.46429 2.33333 7.72701 2.33333 8.05357C2.33333 8.38013 2.5934 8.64286 2.91667 8.64286H4.08333C4.4066 8.64286 4.66667 8.38013 4.66667 8.05357C4.66667 7.72701 4.4066 7.46429 4.08333 7.46429H2.91667ZM6.02778 7.46429C5.70451 7.46429 5.44444 7.72701 5.44444 8.05357C5.44444 8.38013 5.70451 8.64286 6.02778 8.64286H8.75C9.07326 8.64286 9.33333 8.38013 9.33333 8.05357C9.33333 7.72701 9.07326 7.46429 8.75 7.46429H6.02778Z" fill="white"/>
</g>
<defs>
<clipPath id="clip0_97_521">
<rect width="14" height="11" fill="white"/>
</clipPath>
</defs>
</svg>
