<?xml version="1.0" encoding="utf-8"?>
<!-- Generator: Adobe Illustrator 25.2.1, SVG Export Plug-In . SVG Version: 6.00 Build 0)  -->
<svg version="1.1" id="Слой_1" xmlns="http://www.w3.org/2000/svg" xmlns:xlink="http://www.w3.org/1999/xlink" x="0px" y="0px"
	 viewBox="0 0 198.1 59" style="enable-background:new 0 0 198.1 59;" xml:space="preserve">
<style type="text/css">
	.st0{display:none;fill:#262626;}
	.st1{fill:#262626;}
	.st2{fill-rule:evenodd;clip-rule:evenodd;fill:#5281FF;}
	.st3{fill-rule:evenodd;clip-rule:evenodd;fill:#789CFF;}
</style>
<path class="st0" d="M77.1,49L75,45.4h-2.5V49h-0.9v-9.1h3.6c0.8,0,1.4,0.3,1.9,0.8c0.5,0.5,0.8,1.2,0.8,1.9c0,0.6-0.2,1.2-0.6,1.7
	c-0.4,0.5-0.8,0.8-1.4,1l2.2,3.8H77.1z M72.4,40.8v3.7h2.7c0.5,0,0.9-0.2,1.3-0.5c0.4-0.4,0.5-0.8,0.5-1.3c0-0.5-0.2-1-0.5-1.3
	c-0.4-0.4-0.8-0.5-1.3-0.5H72.4z M82,42.3c1,0,1.7,0.3,2.3,1c0.6,0.7,0.9,1.5,0.9,2.4c0,0.1,0,0.2,0,0.4h-5.7
	c0.1,0.7,0.4,1.2,0.8,1.6c0.5,0.4,1.1,0.6,1.8,0.6c0.5,0,0.9-0.1,1.3-0.3c0.4-0.2,0.6-0.5,0.8-0.8l0.8,0.4c-0.3,0.5-0.7,0.8-1.2,1.1
	c-0.5,0.3-1.1,0.4-1.7,0.4c-1,0-1.9-0.3-2.5-1c-0.6-0.6-1-1.5-1-2.4c0-1,0.3-1.8,0.9-2.4C80.2,42.7,81,42.3,82,42.3z M82,43.2
	c-0.7,0-1.2,0.2-1.7,0.6c-0.5,0.4-0.7,0.9-0.8,1.6h4.8c-0.1-0.7-0.4-1.2-0.8-1.6C83.1,43.4,82.6,43.2,82,43.2z M89.6,49.2
	c-1,0-1.8-0.3-2.4-1c-0.7-0.7-1-1.5-1-2.4s0.3-1.8,1-2.4c0.7-0.7,1.5-1,2.4-1c0.6,0,1.2,0.2,1.7,0.5c0.5,0.3,0.9,0.7,1.1,1.2
	l-0.7,0.4c-0.2-0.4-0.5-0.7-0.8-0.9c-0.4-0.2-0.8-0.4-1.3-0.4c-0.7,0-1.3,0.3-1.8,0.8c-0.5,0.5-0.7,1.1-0.7,1.8s0.2,1.3,0.7,1.8
	c0.5,0.5,1.1,0.7,1.8,0.7c0.5,0,0.9-0.1,1.3-0.3c0.4-0.2,0.7-0.5,0.9-0.9l0.7,0.4c-0.3,0.5-0.7,0.9-1.2,1.2
	C90.8,49,90.3,49.2,89.6,49.2z M94.6,43.6c0.4-0.8,1.1-1.2,2.1-1.2v0.8c-0.6,0-1.1,0.2-1.5,0.5c-0.4,0.3-0.6,0.9-0.6,1.6V49h-0.9
	v-6.5h0.9V43.6z M102.4,42.5h0.9V49h-0.9v-1c-0.5,0.8-1.2,1.2-2.2,1.2c-0.8,0-1.4-0.2-1.9-0.7c-0.5-0.5-0.7-1.1-0.7-2v-4h0.9v4
	c0,0.6,0.2,1,0.5,1.4c0.3,0.3,0.7,0.5,1.3,0.5c0.6,0,1.1-0.2,1.5-0.6c0.4-0.4,0.6-1,0.6-1.8V42.5z M106,40.9
	c-0.1,0.1-0.3,0.2-0.4,0.2c-0.2,0-0.3-0.1-0.4-0.2c-0.1-0.1-0.2-0.3-0.2-0.4c0-0.2,0.1-0.3,0.2-0.4c0.1-0.1,0.3-0.2,0.4-0.2
	c0.2,0,0.3,0.1,0.4,0.2s0.2,0.3,0.2,0.4C106.2,40.7,106.1,40.8,106,40.9z M105.1,49v-6.5h0.9V49H105.1z M111.2,43.3h-1.9v3.9
	c0,0.4,0.1,0.6,0.2,0.8c0.1,0.1,0.3,0.2,0.6,0.2c0.3,0,0.6,0,1,0V49c-0.9,0.1-1.6,0.1-2.1-0.2c-0.5-0.3-0.7-0.8-0.7-1.5v-3.9h-1.4
	v-0.8h1.4v-1.6l0.9-0.3v1.8h1.9V43.3z M113.5,40.9c-0.1,0.1-0.3,0.2-0.4,0.2c-0.2,0-0.3-0.1-0.4-0.2c-0.1-0.1-0.2-0.3-0.2-0.4
	c0-0.2,0.1-0.3,0.2-0.4c0.1-0.1,0.3-0.2,0.4-0.2c0.2,0,0.3,0.1,0.4,0.2c0.1,0.1,0.2,0.3,0.2,0.4C113.7,40.7,113.6,40.8,113.5,40.9z
	 M112.7,49v-6.5h0.9V49H112.7z M118.4,42.3c0.8,0,1.4,0.2,1.9,0.7c0.5,0.5,0.7,1.1,0.7,1.9v4h-0.9v-4c0-0.6-0.2-1-0.5-1.4
	c-0.3-0.3-0.7-0.5-1.3-0.5c-0.6,0-1.1,0.2-1.5,0.6c-0.4,0.4-0.6,1-0.6,1.8V49h-0.9v-6.5h0.9v1C116.7,42.7,117.4,42.3,118.4,42.3z
	 M128.2,42.5h0.9v6.2c0,0.9-0.3,1.7-1,2.2c-0.6,0.5-1.4,0.8-2.3,0.8c-1.5,0-2.6-0.5-3.1-1.6l0.8-0.4c0.4,0.8,1.2,1.2,2.3,1.2
	c0.7,0,1.3-0.2,1.8-0.6c0.4-0.4,0.6-0.9,0.6-1.6v-1c-0.6,1-1.5,1.4-2.6,1.4c-0.9,0-1.7-0.3-2.4-1c-0.7-0.7-1-1.5-1-2.4
	s0.3-1.8,1-2.4c0.7-0.7,1.5-1,2.4-1c1.2,0,2,0.5,2.6,1.4V42.5z M123.8,47.6c0.5,0.5,1.1,0.7,1.8,0.7c0.7,0,1.3-0.2,1.8-0.7
	c0.5-0.5,0.7-1.1,0.7-1.8s-0.2-1.3-0.7-1.8c-0.5-0.5-1.1-0.8-1.8-0.8c-0.7,0-1.3,0.3-1.8,0.8c-0.5,0.5-0.7,1.1-0.7,1.8
	S123.3,47.1,123.8,47.6z M137.1,49.2c-1,0-1.8-0.3-2.4-1c-0.7-0.7-1-1.5-1-2.4s0.3-1.8,1-2.4c0.6-0.7,1.5-1,2.4-1
	c0.6,0,1.2,0.2,1.7,0.5c0.5,0.3,0.9,0.7,1.1,1.2l-0.7,0.4c-0.2-0.4-0.5-0.7-0.8-0.9c-0.4-0.2-0.8-0.4-1.3-0.4
	c-0.7,0-1.3,0.3-1.8,0.8c-0.5,0.5-0.7,1.1-0.7,1.8s0.2,1.3,0.7,1.8c0.5,0.5,1.1,0.7,1.8,0.7c0.5,0,0.9-0.1,1.3-0.3
	c0.4-0.2,0.7-0.5,0.9-0.9l0.7,0.4c-0.3,0.5-0.7,0.9-1.2,1.2C138.3,49,137.8,49.2,137.1,49.2z M146.7,48.2c-0.7,0.7-1.5,1-2.4,1
	c-1,0-1.8-0.3-2.4-1c-0.7-0.7-1-1.5-1-2.4s0.3-1.8,1-2.4c0.7-0.7,1.5-1,2.4-1c1,0,1.8,0.3,2.4,1c0.7,0.6,1,1.5,1,2.4
	S147.3,47.5,146.7,48.2z M142.4,47.6c0.5,0.5,1.1,0.7,1.8,0.7c0.7,0,1.3-0.2,1.8-0.7c0.5-0.5,0.7-1.1,0.7-1.8s-0.2-1.3-0.7-1.8
	c-0.5-0.5-1.1-0.8-1.8-0.8c-0.7,0-1.3,0.3-1.8,0.8c-0.5,0.5-0.7,1.1-0.7,1.8S141.9,47.1,142.4,47.6z M156,42.3
	c0.7,0,1.3,0.2,1.8,0.7c0.5,0.5,0.7,1.1,0.7,1.9V49h-0.9v-4.1c0-0.6-0.1-1-0.4-1.3c-0.3-0.3-0.7-0.5-1.1-0.5c-0.5,0-1,0.2-1.3,0.5
	c-0.3,0.4-0.5,0.9-0.5,1.7V49h-0.9v-4.1c0-0.6-0.1-1-0.4-1.3c-0.3-0.3-0.6-0.5-1.1-0.5c-0.5,0-1,0.2-1.3,0.5s-0.5,0.9-0.5,1.7V49
	h-0.9v-6.5h0.9v0.9c0.5-0.7,1.1-1.1,2-1.1c0.9,0,1.6,0.4,2,1.2C154.4,42.7,155.1,42.3,156,42.3z M163.6,42.3c0.9,0,1.7,0.3,2.4,1
	c0.7,0.7,1,1.5,1,2.4s-0.3,1.8-1,2.4c-0.7,0.7-1.4,1-2.4,1c-1.2,0-2-0.5-2.6-1.4v3.9h-0.9v-9.1h0.9v1.3
	C161.6,42.8,162.4,42.3,163.6,42.3z M161.7,47.6c0.5,0.5,1.1,0.7,1.8,0.7c0.7,0,1.3-0.2,1.8-0.7c0.5-0.5,0.7-1.1,0.7-1.8
	s-0.2-1.3-0.7-1.8c-0.5-0.5-1.1-0.8-1.8-0.8c-0.7,0-1.3,0.3-1.8,0.8c-0.5,0.5-0.7,1.1-0.7,1.8S161.2,47.1,161.7,47.6z M174,42.5h0.9
	V49H174v-1.3c-0.6,1-1.5,1.4-2.6,1.4c-0.9,0-1.7-0.3-2.4-1c-0.6-0.7-1-1.5-1-2.4s0.3-1.8,1-2.4c0.7-0.7,1.5-1,2.4-1
	c1.2,0,2,0.5,2.6,1.4V42.5z M169.6,47.6c0.5,0.5,1.1,0.7,1.8,0.7c0.7,0,1.3-0.2,1.8-0.7c0.5-0.5,0.7-1.1,0.7-1.8s-0.2-1.3-0.7-1.8
	c-0.5-0.5-1.1-0.8-1.8-0.8c-0.7,0-1.3,0.3-1.8,0.8c-0.5,0.5-0.7,1.1-0.7,1.8S169.1,47.1,169.6,47.6z M179.7,42.3
	c0.8,0,1.4,0.2,1.9,0.7c0.5,0.5,0.7,1.1,0.7,1.9v4h-0.9v-4c0-0.6-0.2-1-0.5-1.4c-0.3-0.3-0.7-0.5-1.3-0.5c-0.6,0-1.1,0.2-1.5,0.6
	c-0.4,0.4-0.6,1-0.6,1.8V49h-0.9v-6.5h0.9v1C178,42.7,178.7,42.3,179.7,42.3z M188.4,42.5h0.9l-2.8,7.1c-0.3,0.6-0.6,1.1-1.1,1.5
	c-0.5,0.4-1,0.5-1.5,0.5v-0.8c0.8,0.1,1.4-0.4,1.8-1.4l0.2-0.4l-2.9-6.5h0.9l2.4,5.4L188.4,42.5z"/>
<path class="st1" d="M80.2,11c2.1,0,3.8,0.7,5.2,2.1c1.4,1.4,2.1,3.1,2.1,5.1s-0.7,3.7-2.1,5.1c-1.4,1.4-3.2,2.1-5.2,2.1h-3.2V32
	h-4.8V11H80.2z M80.2,20.9c0.7,0,1.3-0.3,1.8-0.8c0.5-0.5,0.7-1.2,0.7-1.9c0-0.8-0.2-1.4-0.7-1.9c-0.5-0.5-1.1-0.8-1.8-0.8h-3.2v5.4
	H80.2z M92.9,26.3c0.5,1.4,1.7,2.1,3.6,2.1c1.2,0,2.2-0.4,2.9-1.1l3.6,2.1c-1.5,2.1-3.7,3.1-6.5,3.1c-2.5,0-4.5-0.7-6.1-2.2
	c-1.5-1.5-2.2-3.4-2.2-5.7c0-2.3,0.7-4.1,2.2-5.6c1.5-1.5,3.4-2.3,5.8-2.3c2.2,0,4,0.8,5.4,2.3c1.5,1.5,2.2,3.4,2.2,5.6
	c0,0.6-0.1,1.2-0.2,1.8H92.9z M92.9,22.9h6.5c-0.4-1.6-1.5-2.4-3.2-2.4C94.4,20.6,93.3,21.4,92.9,22.9z M110.8,19.7
	c0.3-1,0.8-1.7,1.7-2.2c0.9-0.5,1.8-0.8,2.8-0.8v5.1c-1.1-0.2-2.1,0-3.1,0.6c-0.9,0.5-1.4,1.5-1.4,2.8V32h-4.5V17h4.5V19.7z
	 M121.2,21.4c0,0.3,0.2,0.6,0.8,0.8c0.5,0.2,1.1,0.4,1.9,0.6c0.7,0.2,1.4,0.4,2.2,0.7s1.3,0.8,1.8,1.5c0.5,0.7,0.8,1.5,0.8,2.6
	c0,1.6-0.6,2.9-1.8,3.7c-1.2,0.8-2.7,1.2-4.4,1.2c-3.2,0-5.3-1.2-6.4-3.6l3.9-2.2c0.4,1.2,1.2,1.8,2.6,1.8c1.1,0,1.6-0.3,1.6-0.9
	c0-0.3-0.3-0.5-0.8-0.8c-0.5-0.2-1.1-0.4-1.8-0.6c-0.7-0.2-1.4-0.4-2.2-0.8c-0.7-0.3-1.3-0.8-1.9-1.5c-0.5-0.7-0.8-1.5-0.8-2.4
	c0-1.6,0.6-2.8,1.7-3.6c1.1-0.9,2.5-1.3,4.2-1.3c1.2,0,2.4,0.3,3.4,0.8c1,0.5,1.8,1.3,2.5,2.4l-3.8,2.1c-0.5-0.9-1.2-1.3-2-1.3
	C121.7,20.5,121.2,20.8,121.2,21.4z M143.6,30.1c-1.5,1.5-3.4,2.3-5.6,2.3s-4.1-0.8-5.6-2.3c-1.5-1.5-2.3-3.4-2.3-5.6
	s0.8-4.1,2.3-5.6c1.5-1.5,3.4-2.3,5.6-2.3s4.1,0.8,5.6,2.3c1.5,1.5,2.3,3.4,2.3,5.6S145.1,28.6,143.6,30.1z M135.5,27
	c0.7,0.7,1.5,1,2.5,1s1.8-0.3,2.5-1c0.7-0.7,1-1.5,1-2.5s-0.3-1.9-1-2.5c-0.7-0.7-1.5-1-2.5-1s-1.8,0.3-2.5,1c-0.7,0.7-1,1.5-1,2.5
	S134.8,26.4,135.5,27z M157.2,16.6c1.6,0,2.9,0.5,4,1.6c1.1,1.1,1.6,2.6,1.6,4.6V32h-4.5v-8.5c0-0.9-0.2-1.6-0.8-2
	c-0.5-0.5-1.1-0.7-1.9-0.7c-0.9,0-1.5,0.3-2,0.8s-0.8,1.3-0.8,2.3V32h-4.5V17h4.5v1.4C153.8,17.2,155.3,16.6,157.2,16.6z M176.8,17
	h4.5v15h-4.5v-1.4c-1.1,1.2-2.6,1.8-4.5,1.8c-2,0-3.7-0.8-5.1-2.3c-1.4-1.5-2.1-3.4-2.1-5.6s0.7-4.1,2.1-5.6
	c1.4-1.5,3.1-2.3,5.1-2.3c1.9,0,3.4,0.6,4.5,1.8V17z M170.7,27.2c0.7,0.7,1.5,1,2.6,1c1.1,0,1.9-0.3,2.6-1c0.7-0.7,1-1.5,1-2.7
	s-0.3-2-1-2.7c-0.7-0.7-1.5-1-2.6-1c-1.1,0-1.9,0.3-2.6,1c-0.7,0.7-1,1.5-1,2.7S170,26.5,170.7,27.2z"/>
<path class="st2" d="M29.5,39.3l25.6-14.9v19.7L29.5,59V39.3z"/>
<path class="st3" d="M29.5,0l25.6,14.7L29.5,29.4L3.9,14.7L29.5,0z"/>
<path class="st2" d="M37.9,24.6l-8.4,4.8l-8.4-4.8l8.4-4.8L37.9,24.6z"/>
<path class="st3" d="M21,34.4l8.5,4.8l0,0v19.6L4,44.3L21,34.4z"/>
<path class="st2" d="M3.9,14.9l0.2-0.1l17,9.8l-17.2,10V14.9z M29.1,0.3L29.5,0v0L29.1,0.3z"/>
<g>
	<path class="st1" d="M78.7,49.2h-1.2L76,46.7c-0.1-0.2-0.3-0.4-0.4-0.6c-0.1-0.2-0.3-0.3-0.4-0.4c-0.1-0.1-0.3-0.2-0.4-0.2
		c-0.2,0-0.3-0.1-0.5-0.1h-0.9v3.8h-1v-8.9H75c0.4,0,0.7,0,1.1,0.1c0.3,0.1,0.6,0.2,0.9,0.4c0.2,0.2,0.4,0.4,0.6,0.7
		c0.1,0.3,0.2,0.6,0.2,1c0,0.3,0,0.6-0.1,0.9c-0.1,0.3-0.2,0.5-0.4,0.7c-0.2,0.2-0.4,0.4-0.6,0.5c-0.2,0.1-0.5,0.3-0.8,0.3v0
		c0.1,0.1,0.3,0.1,0.4,0.2c0.1,0.1,0.2,0.2,0.3,0.3c0.1,0.1,0.2,0.2,0.3,0.4c0.1,0.1,0.2,0.3,0.3,0.5L78.7,49.2z M73.3,41.2v3.2h1.4
		c0.3,0,0.5,0,0.7-0.1s0.4-0.2,0.6-0.3c0.2-0.1,0.3-0.3,0.4-0.5c0.1-0.2,0.1-0.5,0.1-0.7c0-0.5-0.2-0.8-0.5-1.1
		c-0.3-0.3-0.8-0.4-1.3-0.4H73.3z"/>
	<path class="st1" d="M84.9,46.2h-4.5c0,0.7,0.2,1.3,0.6,1.6c0.4,0.4,0.9,0.6,1.5,0.6c0.7,0,1.4-0.2,2-0.7v1
		c-0.6,0.4-1.3,0.6-2.2,0.6c-0.9,0-1.6-0.3-2.1-0.9c-0.5-0.6-0.8-1.4-0.8-2.4c0-1,0.3-1.8,0.8-2.4s1.3-0.9,2.1-0.9s1.5,0.3,1.9,0.8
		c0.5,0.5,0.7,1.3,0.7,2.2V46.2z M83.8,45.4c0-0.6-0.1-1-0.4-1.4c-0.3-0.3-0.7-0.5-1.2-0.5c-0.5,0-0.9,0.2-1.2,0.5
		c-0.3,0.3-0.5,0.8-0.6,1.3H83.8z"/>
	<path class="st1" d="M90.7,48.9c-0.5,0.3-1.1,0.4-1.7,0.4c-0.9,0-1.6-0.3-2.2-0.9c-0.6-0.6-0.8-1.4-0.8-2.3c0-1,0.3-1.9,0.9-2.5
		c0.6-0.6,1.4-1,2.4-1c0.6,0,1,0.1,1.5,0.3v1c-0.5-0.3-1-0.5-1.5-0.5c-0.6,0-1.2,0.2-1.6,0.7S87,45.3,87,46c0,0.7,0.2,1.3,0.6,1.8
		s0.9,0.6,1.6,0.6c0.6,0,1.1-0.2,1.6-0.6V48.9z"/>
	<path class="st1" d="M95.6,43.8c-0.2-0.1-0.4-0.2-0.8-0.2c-0.4,0-0.8,0.2-1.1,0.6s-0.4,1-0.4,1.7v3.2h-1v-6.3h1v1.3h0
		c0.1-0.4,0.4-0.8,0.7-1c0.3-0.2,0.6-0.4,1-0.4c0.3,0,0.5,0,0.6,0.1V43.8z"/>
	<path class="st1" d="M101.8,49.2h-1v-1h0c-0.4,0.8-1.1,1.2-2,1.2c-1.5,0-2.3-0.9-2.3-2.7v-3.8h1v3.6c0,1.3,0.5,2,1.5,2
		c0.5,0,0.9-0.2,1.2-0.5c0.3-0.4,0.5-0.8,0.5-1.4v-3.7h1V49.2z"/>
	<path class="st1" d="M104.4,41.2c-0.2,0-0.3-0.1-0.5-0.2c-0.1-0.1-0.2-0.3-0.2-0.5s0.1-0.3,0.2-0.5c0.1-0.1,0.3-0.2,0.5-0.2
		c0.2,0,0.3,0.1,0.5,0.2c0.1,0.1,0.2,0.3,0.2,0.5c0,0.2-0.1,0.3-0.2,0.5C104.7,41.1,104.6,41.2,104.4,41.2z M104.9,49.2h-1v-6.3h1
		V49.2z"/>
	<path class="st1" d="M109.9,49.1c-0.2,0.1-0.6,0.2-0.9,0.2c-1.1,0-1.7-0.6-1.7-1.9v-3.8h-1.1v-0.9h1.1v-1.5l1-0.3v1.9h1.6v0.9h-1.6
		v3.6c0,0.4,0.1,0.7,0.2,0.9s0.4,0.3,0.7,0.3c0.3,0,0.5-0.1,0.7-0.2V49.1z"/>
	<path class="st1" d="M120.3,49.2h-1v-3.6c0-0.7-0.1-1.2-0.3-1.5c-0.2-0.3-0.6-0.5-1.1-0.5c-0.4,0-0.8,0.2-1.1,0.6
		c-0.3,0.4-0.5,0.9-0.5,1.4v3.6h-1v-3.8c0-1.2-0.5-1.9-1.4-1.9c-0.4,0-0.8,0.2-1.1,0.6c-0.3,0.4-0.4,0.9-0.4,1.5v3.6h-1v-6.3h1v1h0
		c0.5-0.8,1.1-1.2,2-1.2c0.4,0,0.8,0.1,1.1,0.4s0.5,0.6,0.7,1c0.5-0.9,1.2-1.3,2.1-1.3c1.4,0,2.1,0.9,2.1,2.6V49.2z"/>
	<path class="st1" d="M127.3,46.2h-4.5c0,0.7,0.2,1.3,0.6,1.6c0.4,0.4,0.9,0.6,1.5,0.6c0.7,0,1.4-0.2,2-0.7v1
		c-0.6,0.4-1.3,0.6-2.2,0.6c-0.9,0-1.6-0.3-2.1-0.9c-0.5-0.6-0.8-1.4-0.8-2.4c0-1,0.3-1.8,0.8-2.4c0.6-0.6,1.3-0.9,2.1-0.9
		c0.8,0,1.5,0.3,1.9,0.8c0.5,0.5,0.7,1.3,0.7,2.2V46.2z M126.3,45.4c0-0.6-0.1-1-0.4-1.4c-0.3-0.3-0.7-0.5-1.2-0.5
		c-0.5,0-0.9,0.2-1.2,0.5s-0.5,0.8-0.6,1.3H126.3z"/>
	<path class="st1" d="M134.1,49.2h-1v-3.6c0-1.3-0.5-2-1.5-2c-0.5,0-0.9,0.2-1.3,0.6c-0.3,0.4-0.5,0.9-0.5,1.4v3.6h-1v-6.3h1v1.1h0
		c0.5-0.8,1.2-1.2,2.1-1.2c0.7,0,1.2,0.2,1.6,0.7c0.4,0.4,0.6,1.1,0.6,1.9V49.2z"/>
	<path class="st1" d="M139,49.1c-0.2,0.1-0.6,0.2-0.9,0.2c-1.1,0-1.7-0.6-1.7-1.9v-3.8h-1.1v-0.9h1.1v-1.5l1-0.3v1.9h1.6v0.9h-1.6
		v3.6c0,0.4,0.1,0.7,0.2,0.9s0.4,0.3,0.7,0.3c0.3,0,0.5-0.1,0.7-0.2V49.1z"/>
	<path class="st1" d="M148.1,48.9c-0.5,0.3-1.1,0.4-1.7,0.4c-0.9,0-1.6-0.3-2.2-0.9c-0.6-0.6-0.8-1.4-0.8-2.3c0-1,0.3-1.9,0.9-2.5
		c0.6-0.6,1.4-1,2.4-1c0.6,0,1,0.1,1.5,0.3v1c-0.5-0.3-1-0.5-1.5-0.5c-0.6,0-1.2,0.2-1.6,0.7c-0.4,0.5-0.6,1.1-0.6,1.8
		c0,0.7,0.2,1.3,0.6,1.8s0.9,0.6,1.6,0.6c0.6,0,1.1-0.2,1.6-0.6V48.9z"/>
	<path class="st1" d="M152.3,49.3c-0.9,0-1.7-0.3-2.2-0.9c-0.6-0.6-0.8-1.4-0.8-2.4c0-1.1,0.3-1.9,0.9-2.5c0.6-0.6,1.4-0.9,2.4-0.9
		c0.9,0,1.7,0.3,2.2,0.9s0.8,1.4,0.8,2.4c0,1-0.3,1.8-0.9,2.4C154.1,49,153.3,49.3,152.3,49.3z M152.4,43.5c-0.7,0-1.2,0.2-1.6,0.7
		c-0.4,0.4-0.6,1.1-0.6,1.8c0,0.8,0.2,1.3,0.6,1.8c0.4,0.4,0.9,0.7,1.5,0.7c0.7,0,1.2-0.2,1.5-0.6s0.5-1,0.5-1.8
		c0-0.8-0.2-1.4-0.5-1.8C153.6,43.7,153.1,43.5,152.4,43.5z"/>
	<path class="st1" d="M166.1,49.2h-1v-3.6c0-0.7-0.1-1.2-0.3-1.5c-0.2-0.3-0.6-0.5-1.1-0.5c-0.4,0-0.8,0.2-1.1,0.6
		c-0.3,0.4-0.5,0.9-0.5,1.4v3.6h-1v-3.8c0-1.2-0.5-1.9-1.4-1.9c-0.4,0-0.8,0.2-1.1,0.6c-0.3,0.4-0.4,0.9-0.4,1.5v3.6h-1v-6.3h1v1h0
		c0.5-0.8,1.1-1.2,2-1.2c0.4,0,0.8,0.1,1.1,0.4s0.5,0.6,0.7,1c0.5-0.9,1.2-1.3,2.1-1.3c1.4,0,2.1,0.9,2.1,2.6V49.2z"/>
	<path class="st1" d="M169.1,48.2L169.1,48.2l0,3.8h-1v-9.3h1v1.1h0c0.5-0.8,1.2-1.3,2.2-1.3c0.8,0,1.5,0.3,1.9,0.9
		c0.5,0.6,0.7,1.3,0.7,2.3c0,1.1-0.3,1.9-0.8,2.6c-0.5,0.6-1.2,1-2.1,1C170.2,49.3,169.5,48.9,169.1,48.2z M169.1,45.7v0.9
		c0,0.5,0.2,1,0.5,1.3c0.3,0.4,0.8,0.5,1.3,0.5c0.6,0,1.1-0.2,1.4-0.7c0.3-0.5,0.5-1.1,0.5-2c0-0.7-0.2-1.3-0.5-1.7
		c-0.3-0.4-0.8-0.6-1.3-0.6c-0.6,0-1.1,0.2-1.4,0.6C169.2,44.5,169.1,45.1,169.1,45.7z"/>
	<path class="st1" d="M180.1,49.2h-1v-1h0c-0.4,0.8-1.1,1.1-2,1.1c-0.6,0-1.1-0.2-1.5-0.5S175,48,175,47.5c0-1.2,0.7-1.9,2.1-2.1
		l1.9-0.3c0-1.1-0.4-1.6-1.3-1.6c-0.8,0-1.5,0.3-2.1,0.8v-1c0.6-0.4,1.3-0.6,2.2-0.6c1.5,0,2.2,0.8,2.2,2.4V49.2z M179,45.9
		l-1.5,0.2c-0.5,0.1-0.8,0.2-1.1,0.4c-0.2,0.2-0.4,0.5-0.4,0.9c0,0.3,0.1,0.6,0.3,0.8c0.2,0.2,0.5,0.3,0.9,0.3
		c0.5,0,0.9-0.2,1.2-0.5c0.3-0.4,0.5-0.8,0.5-1.3V45.9z"/>
	<path class="st1" d="M187.2,49.2h-1v-3.6c0-1.3-0.5-2-1.5-2c-0.5,0-0.9,0.2-1.3,0.6c-0.3,0.4-0.5,0.9-0.5,1.4v3.6h-1v-6.3h1v1.1h0
		c0.5-0.8,1.2-1.2,2.1-1.2c0.7,0,1.2,0.2,1.6,0.7c0.4,0.4,0.6,1.1,0.6,1.9V49.2z"/>
	<path class="st1" d="M194.2,42.8l-2.9,7.4c-0.5,1.3-1.3,2-2.2,2c-0.3,0-0.5,0-0.7-0.1v-0.9c0.2,0.1,0.4,0.1,0.6,0.1
		c0.5,0,0.9-0.3,1.2-0.9l0.5-1.2l-2.5-6.3h1.1l1.7,4.9c0,0.1,0.1,0.2,0.1,0.5h0c0-0.1,0.1-0.3,0.1-0.5l1.8-4.9H194.2z"/>
</g>
</svg>
