<svg width="17" height="17" viewBox="0 0 17 17" fill="none" xmlns="http://www.w3.org/2000/svg">
<g clip-path="url(#clip0_97_457)">
<path d="M5.47519 0.817057C5.21953 0.199479 4.54551 -0.129232 3.90137 0.0467447L0.979492 0.84362C0.401758 1.00299 0 1.5276 0 2.12526C0 10.3397 6.66055 17.0003 14.875 17.0003C15.4727 17.0003 15.9973 16.5985 16.1566 16.0208L16.9535 13.0989C17.1295 12.4548 16.8008 11.7807 16.1832 11.5251L12.9957 10.1969C12.4545 9.97116 11.827 10.1272 11.4584 10.5821L10.117 12.219C7.77949 11.1133 5.88691 9.22077 4.78125 6.88327L6.41816 5.54518C6.87305 5.17331 7.0291 4.54909 6.80332 4.00788L5.47519 0.820378V0.817057Z" fill="#066DCA"/>
</g>
<defs>
<clipPath id="clip0_97_457">
<rect width="17" height="17" fill="white"/>
</clipPath>
</defs>
</svg>
